<?xml version="1.0" encoding="UTF-8" standalone="no"?>
<!-- Created with Inkscape (http://www.inkscape.org/) -->

<svg
   version="1.1"
   id="svg55"
   xml:space="preserve"
   width="1600"
   height="1066.6667"
   viewBox="0 0 1600 1066.6667"
   sodipodi:docname="bg.svg"
   inkscape:version="1.1.2 (0a00cf5339, 2022-02-04)"
   xmlns:inkscape="http://www.inkscape.org/namespaces/inkscape"
   xmlns:sodipodi="http://sodipodi.sourceforge.net/DTD/sodipodi-0.dtd"
   xmlns="http://www.w3.org/2000/svg"
   xmlns:svg="http://www.w3.org/2000/svg"><defs
     id="defs59"><linearGradient
       x1="0"
       y1="0"
       x2="1"
       y2="0"
       gradientUnits="userSpaceOnUse"
       gradientTransform="matrix(12000,0,0,-12000,-2.241e-4,4000)"
       spreadMethod="pad"
       id="linearGradient73"><stop
         style="stop-opacity:1;stop-color:#ddbc82"
         offset="0"
         id="stop65" /><stop
         style="stop-opacity:1;stop-color:#9b7860"
         offset="0.305389"
         id="stop67" /><stop
         style="stop-opacity:1;stop-color:#ddbc82"
         offset="0.652204"
         id="stop69" /><stop
         style="stop-opacity:1;stop-color:#9b7860"
         offset="1"
         id="stop71" /></linearGradient></defs><sodipodi:namedview
     id="namedview57"
     pagecolor="#ffffff"
     bordercolor="#666666"
     borderopacity="1.0"
     inkscape:pageshadow="2"
     inkscape:pageopacity="0.0"
     inkscape:pagecheckerboard="0"
     showgrid="false"
     inkscape:zoom="1"
     inkscape:cx="457.5"
     inkscape:cy="786"
     inkscape:window-width="1536"
     inkscape:window-height="795"
     inkscape:window-x="0"
     inkscape:window-y="32"
     inkscape:window-maximized="1"
     inkscape:current-layer="g63" /><g
     id="g61"
     inkscape:groupmode="layer"
     inkscape:label="ink_ext_XXXXXX"
     transform="matrix(1.3333333,0,0,-1.3333333,0,1066.6667)"><g
       id="g63"
       transform="scale(0.1)"><path
         d="M 12000,8000 V 0 H 0 v 8000 h 12000"
         style="fill:url(#linearGradient73);fill-opacity:1;fill-rule:nonzero;stroke:none"
         id="path75" /><path
         d="M 1127.03,8200 H 359.055 l 320.718,-693.95 z"
         style="fill:#181818;fill-opacity:1;fill-rule:nonzero;stroke:none"
         id="path77" /><path
         d="m -142.957,2797.96 1520.637,-910.97 589.27,2567.97 -508,1099.18 L -720,4005.12 v -861.47 l 575.121,-344.53 1.922,-1.16"
         style="fill:#181818;fill-opacity:1;fill-rule:nonzero;stroke:none"
         id="path79" /><path
         d="M 10390.4,-200 H 12720 V 2012.7 L 10370.5,-175.121 10390.4,-200"
         style="fill:#181818;fill-opacity:1;fill-rule:nonzero;stroke:none"
         id="path81" /><path
         d="m 8048.37,-200 h 2198.93 l -1388,1729.22 z"
         style="fill:#181818;fill-opacity:1;fill-rule:nonzero;stroke:none"
         id="path83" /><path
         d="m 12720,2872.9 v 937.14 l -828.6,-991.75 z"
         style="fill:#181818;fill-opacity:1;fill-rule:nonzero;stroke:none"
         id="path85" /><path
         d="M 3931.05,227.262 2176.2,1278.55 1982.54,857 1496.96,-200 h 3147.29 l -712.01,426.539 -1.19,0.723"
         style="fill:#222222;fill-opacity:1;fill-rule:nonzero;stroke:none"
         id="path87" /><path
         d="m 6028.68,-200 h 1550 l -708.39,2446.98 z"
         style="fill:#222222;fill-opacity:1;fill-rule:nonzero;stroke:none"
         id="path89" /><path
         d="m 3833.81,415.59 -935.92,2025.06 -1.13,2.47 -242.68,525.08 -0.01,0.02 -610.63,1321.22 -565.12,-2462.74 701.84,-420.45 1653.65,-990.66"
         style="fill:#222222;fill-opacity:1;fill-rule:nonzero;stroke:none"
         id="path91" /><path
         d="m 10419.7,2721.32 1317.8,86.82 982.5,1175.91 v 252.81 l -1583.5,658.74 -716.8,-2174.28"
         style="fill:#222222;fill-opacity:1;fill-rule:nonzero;stroke:none"
         id="path93" /><path
         d="m 8884.79,5953.19 0.25,-0.1 1983.86,-825.3 1851.1,-770.08 V 8200 h -866.9 L 8294.95,6198.57 8884.79,5953.19"
         style="fill:#222222;fill-opacity:1;fill-rule:nonzero;stroke:none"
         id="path95" /><path
         d="M 11033.2,4938.58 8972.71,5795.76 10332.5,2813.04 Z"
         style="fill:#222222;fill-opacity:1;fill-rule:nonzero;stroke:none"
         id="path97" /><path
         d="m 9290.81,2646.92 c 0.88,0.07 1.79,0.15 2.7,0.18 l 962.99,63.47 -1435.12,3148.15 -307.34,127.85 -312.82,130.13 -326.98,-950.72 -919.34,-2672.99 2335.91,153.93"
         style="fill:#181818;fill-opacity:1;fill-rule:nonzero;stroke:none"
         id="path99" /><path
         d="M 6822.23,2450.29 7761.21,5180.42 7176.68,6378.73 5338.15,4643.93 5764.59,-200 h 146.1 l 911.3,2649.62 0.24,0.67"
         style="fill:#222222;fill-opacity:1;fill-rule:nonzero;stroke:none"
         id="path101" /><path
         d="M 8912.06,1641.73 10300.4,-87.8711 12720,2165.16 v 595.92 L 9332.3,2537.84 8912.06,1641.73"
         style="fill:#222222;fill-opacity:1;fill-rule:nonzero;stroke:none"
         id="path103" /><path
         d="M 8796.75,1658.6 9205.13,2529.46 6947.73,2380.7 7694.84,-200 h 230.3 l 870.7,1856.69 0.91,1.91"
         style="fill:#222220;fill-opacity:1;fill-rule:nonzero;stroke:none"
         id="path105" /><path
         d="M 3207.83,7356.38 1121.8,6549.61 1532.04,5661.95 2711.98,3108.87 5881.5,8200 h -492.39 l -2179.7,-843 -1.58,-0.62"
         style="fill:#181818;fill-opacity:1;fill-rule:nonzero;stroke:none"
         id="path107" /><path
         d="m 995.563,6556.78 -374.172,809.61 -0.633,1.38 L 236.125,8200 H -720 V 4142.02 l 2131.32,1515.16 -415.757,899.6"
         style="fill:#222222;fill-opacity:1;fill-rule:nonzero;stroke:none"
         id="path109" /><path
         d="M 1074.9,6651.1 3081.36,7427.11 2179.86,8200 H 1259.77 L 735.203,7386.1 1074.9,6651.1"
         style="fill:#222222;fill-opacity:1;fill-rule:nonzero;stroke:none"
         id="path111" /><path
         d="m 3071.05,8200 h -719.76 l 771.16,-661.14 z"
         style="fill:#181818;fill-opacity:1;fill-rule:nonzero;stroke:none"
         id="path113" /><path
         d="m 2767.98,2987.69 198.1,-428.62 2275.57,2147.21 0.61,0.57 L 7125.44,6483.78 6288.29,8200 H 6012.93 L 4779.32,6218.47 2767.98,2987.69"
         style="fill:#222222;fill-opacity:1;fill-rule:nonzero;stroke:none"
         id="path115" /><path
         d="M 3015.44,2452.25 4003.79,313.762 4861.38,-200 h 791.2 l -417.84,4746.35 -2219.3,-2094.1"
         style="fill:#181818;fill-opacity:1;fill-rule:nonzero;stroke:none"
         id="path117" /><path
         d="M 7812.54,5329.69 8799.75,8200 H 6412.43 l 831.28,-1704.17 568.83,-1166.14"
         style="fill:#181818;fill-opacity:1;fill-rule:nonzero;stroke:none"
         id="path119" /><path
         d="M 11625.5,8200 H 8917.74 l -649.5,-1888.44 z"
         style="fill:#181818;fill-opacity:1;fill-rule:nonzero;stroke:none"
         id="path121" /><path
         d="m 2079.91,1336.24 -693.89,415.68 -0.94,0.56 L -113.141,2650.02 -11.9453,-200 H 1374.18 l 705.73,1536.24"
         style="fill:#181818;fill-opacity:1;fill-rule:nonzero;stroke:none"
         id="path123" /><path
         d="M 5079.79,8200 H 3182.96 l 55.37,-712.19 z"
         style="fill:#222222;fill-opacity:1;fill-rule:nonzero;stroke:none"
         id="path125" /></g><path
       style="fill:none;stroke-width:1.82025"
       d="M 43.68601,729.99527 -94.653022,646.91001 -95.133687,590.35721 -95.614352,533.80442 48.140967,431.53638 C 127.2064,375.28896 192.48666,329.10789 193.20824,328.91177 c 0.72157,-0.19611 16.32164,32.11141 34.66682,71.7945 l 33.35485,72.15107 -38.27084,167.21186 c -21.04897,91.96653 -38.87006,168.51675 -39.60244,170.11161 -1.08129,2.35466 -27.33556,-12.71803 -139.67062,-80.18554 z"
       id="path1060"
       transform="matrix(0.75000002,0,0,-0.75000002,0,800.00005)" /></g></svg>
